<svg xmlns="http://www.w3.org/2000/svg" width="16" height="16" viewBox="0 0 16 16" fill="inherit"><g clip-path="url(#clip0_23382_31927)"><path d="M16.2933 5.22009L14.24 2.60009C14.1037 2.42717 13.905 2.31465 13.6867 2.28676C13.4677 2.26521 13.2486 2.32711 13.0733 2.46009L9.39332 5.33342C9.36721 5.34932 9.33723 5.35773 9.30665 5.35773C9.27608 5.35773 9.2461 5.34932 9.21999 5.33342C9.19195 5.32057 9.16822 5.29989 9.15166 5.27387C9.13511 5.24785 9.12642 5.2176 9.12665 5.18676V1.04009C9.12665 0.863279 9.05642 0.693709 8.93139 0.568685C8.80637 0.443661 8.6368 0.373423 8.45999 0.373423C8.28318 0.373423 8.11361 0.443661 7.98858 0.568685C7.86356 0.693709 7.79332 0.863279 7.79332 1.04009V2.26676C7.7934 2.29573 7.78593 2.32422 7.77164 2.34942C7.75735 2.37462 7.73674 2.39566 7.71183 2.41047C7.68693 2.42527 7.6586 2.43333 7.62964 2.43385C7.60067 2.43437 7.57207 2.42733 7.54665 2.41342L3.55999 0.113423C3.46595 0.0583975 3.36197 0.0225028 3.25401 0.00780301C3.14606 -0.00689682 3.03626 -0.000111833 2.93094 0.0277678C2.82562 0.0556475 2.72685 0.104072 2.6403 0.170257C2.55376 0.236441 2.48115 0.319081 2.42665 0.413423L0.599988 3.58009C0.533077 3.69486 0.513924 3.83133 0.546654 3.96009C0.581913 4.0869 0.665754 4.1947 0.779988 4.26009L5.83332 7.16676C5.95914 7.23848 6.10184 7.2753 6.24665 7.27342C6.3174 7.28363 6.38924 7.28363 6.45999 7.27342C6.56597 7.24605 6.66541 7.19774 6.75243 7.13133C6.83944 7.06492 6.91228 6.98176 6.96665 6.88676L7.51332 5.94009C7.53226 5.90926 7.56071 5.88543 7.59439 5.8722C7.62806 5.85897 7.66513 5.85706 7.69999 5.86676C7.73461 5.87685 7.76502 5.89791 7.78665 5.92676C7.80829 5.95561 7.81999 5.99069 7.81999 6.02676V8.69342C7.81956 8.72017 7.81338 8.74652 7.80188 8.77067C7.79038 8.79483 7.77382 8.81623 7.75332 8.83342C7.73049 8.84461 7.70541 8.85042 7.67999 8.85042C7.65457 8.85042 7.62948 8.84461 7.60665 8.83342L4.81999 8.00009C4.71114 7.96285 4.5958 7.94837 4.48112 7.95755C4.36644 7.96672 4.25487 7.99935 4.15332 8.05342C3.95896 8.15895 3.81316 8.33582 3.74665 8.54676L3.23332 10.2801C3.19831 10.3851 3.18473 10.496 3.1934 10.6064C3.20207 10.7167 3.23281 10.8242 3.28379 10.9224C3.33477 11.0207 3.40496 11.1077 3.4902 11.1783C3.57543 11.2489 3.67398 11.3016 3.77999 11.3334L7.11332 12.3801C7.19392 12.401 7.27673 12.4122 7.35999 12.4134C7.42627 12.4235 7.4937 12.4235 7.55999 12.4134C7.58266 12.4017 7.60781 12.3956 7.63332 12.3956C7.65883 12.3956 7.68398 12.4017 7.70665 12.4134C7.72819 12.4281 7.74562 12.4481 7.75728 12.4714C7.76895 12.4948 7.77447 12.5207 7.77332 12.5468V13.2134C7.77332 13.2576 7.75576 13.3 7.72451 13.3313C7.69325 13.3625 7.65086 13.3801 7.60665 13.3801H6.27332C6.16813 13.3798 6.06437 13.4044 5.97052 13.4519C5.87666 13.4995 5.79538 13.5685 5.73332 13.6534C5.67137 13.7389 5.6306 13.8379 5.61438 13.9422C5.59815 14.0465 5.60693 14.1532 5.63999 14.2534L6.15999 15.8134C6.19087 15.8755 6.23999 15.9266 6.30076 15.96C6.36153 15.9934 6.43104 16.0073 6.49999 16.0001H10.5C10.5691 15.9986 10.636 15.9761 10.692 15.9356C10.748 15.8951 10.7903 15.8386 10.8133 15.7734L11.3333 14.2134C11.3664 14.1132 11.3752 14.0065 11.3589 13.9022C11.3427 13.7979 11.3019 13.6989 11.24 13.6134C11.1779 13.5285 11.0966 13.4595 11.0028 13.4119C10.9089 13.3644 10.8052 13.3398 10.7 13.3401H9.29999C9.25578 13.3401 9.21339 13.3225 9.18214 13.2913C9.15088 13.26 9.13332 13.2176 9.13332 13.1734V8.40676C9.1328 8.37325 9.14282 8.34042 9.16196 8.31291C9.1811 8.2854 9.20839 8.26459 9.23999 8.25342C9.27248 8.23941 9.30881 8.23706 9.34284 8.24679C9.37686 8.25651 9.40647 8.27769 9.42665 8.30676L10.5467 9.73342C10.6263 9.83325 10.7279 9.91342 10.8435 9.96775C10.9591 10.0221 11.0856 10.0491 11.2133 10.0468C11.3991 10.0488 11.5801 9.98769 11.7267 9.87342L16.1733 6.38676C16.2622 6.31971 16.3368 6.23568 16.3929 6.13954C16.4489 6.04341 16.4854 5.93709 16.5 5.82676C16.5118 5.60546 16.4378 5.38813 16.2933 5.22009ZM13.1133 6.19342C13.1081 6.357 13.0548 6.51542 12.9601 6.64891C12.8654 6.7824 12.7335 6.88505 12.5808 6.94405C12.4282 7.00305 12.2615 7.0158 12.1017 6.9807C11.9418 6.94559 11.7958 6.8642 11.682 6.74666C11.5681 6.62912 11.4913 6.48065 11.4612 6.31977C11.4312 6.15889 11.4492 5.99272 11.513 5.842C11.5767 5.69127 11.6835 5.56267 11.8199 5.47222C11.9563 5.38178 12.1163 5.33351 12.28 5.33342C12.3917 5.33337 12.5023 5.35577 12.6052 5.39931C12.7081 5.44284 12.8011 5.50662 12.8789 5.58685C12.9566 5.66708 13.0174 5.76212 13.0577 5.86632C13.098 5.97053 13.1169 6.08176 13.1133 6.19342ZM5.46665 3.53342C5.46797 3.6988 5.42005 3.86083 5.32899 3.99889C5.23793 4.13695 5.10786 4.24479 4.95532 4.30869C4.80277 4.37258 4.63467 4.38965 4.4724 4.35771C4.31013 4.32576 4.16104 4.24626 4.04409 4.12932C3.92715 4.01237 3.84765 3.86328 3.8157 3.70101C3.78376 3.53874 3.80083 3.37064 3.86472 3.2181C3.92862 3.06555 4.03646 2.93548 4.17452 2.84442C4.31258 2.75336 4.47461 2.70544 4.63999 2.70676C4.85869 2.7085 5.06795 2.79615 5.2226 2.95081C5.37726 3.10546 5.46491 3.31472 5.46665 3.53342ZM5.96665 10.7734C5.8348 10.7734 5.70591 10.7343 5.59627 10.6611C5.48664 10.5878 5.40119 10.4837 5.35073 10.3619C5.30028 10.2401 5.28707 10.106 5.3128 9.9767C5.33852 9.84737 5.40201 9.72859 5.49525 9.63535C5.58848 9.54212 5.70727 9.47862 5.83659 9.4529C5.96591 9.42718 6.09996 9.44038 6.22178 9.49084C6.34359 9.54129 6.44771 9.62674 6.52097 9.73638C6.59422 9.84601 6.63332 9.9749 6.63332 10.1068C6.63332 10.2836 6.56308 10.4531 6.43806 10.5782C6.31303 10.7032 6.14347 10.7734 5.96665 10.7734Z" fill="inherit" fill-opacity="0.75"></path></g><defs><clipPath id="clip0_23382_31927"><rect width="16" height="16" fill="white" transform="translate(0.5)"></rect></clipPath></defs></svg>