<svg id="Layer_1" data-name="Layer 1" xmlns="http://www.w3.org/2000/svg" viewBox="0 0 612 612"><defs><style>.cls-1{fill:#fff;}</style></defs><rect class="cls-1" x="-21.04" y="-21.04" width="654.07" height="654.07"/><path d="M89,397.65c0-12.31,0-24.23.07-36.1a3,3,0,0,1,1.48-2c4.36-2.39,8.87-4.55,13.29-6.86,13-6.8,19.56-17.51,19-32.17-.4-11.09-.64-22.14.45-33.2a183.84,183.84,0,0,1,79-133.16,178.13,178.13,0,0,1,75.34-29.92c39.75-6,77.56.15,113.24,18.74,6.37,3.32,12.38,7.35,18.54,11.1,1.38.84,2.66,1.86,4.14,2.91-.64.37-1,.64-1.45.87q-15.57,8-31.13,15.94a3,3,0,0,1-3.27-.05,142.56,142.56,0,0,0-58.19-17.66c-44.34-3.45-83.2,9.68-116,39.86-21.67,19.95-36,44.44-43.21,73A152.65,152.65,0,0,0,157,325.52l365.75-186.7v23.53c0,3.94-.1,7.89,0,11.82a3,3,0,0,1-2,3.19Q477,199.62,433.28,222l-266,135.78-76,38.8C90.62,396.9,90,397.2,89,397.65Z"/><path d="M89,472.78c0-12.44,0-24.41.08-36.38,0-.67.91-1.59,1.63-2,12.8-6.6,25.65-13.13,38.48-19.69L414.49,269.14l105.87-54c.71-.36,1.43-.69,2.39-1.14v11.15c0,7.88-.09,15.77.06,23.65a3.52,3.52,0,0,1-2.42,3.83c-4.3,2-8.52,4.21-12.75,6.44-12.67,6.73-19,17.26-18.85,31.65.09,9.14.5,18.3,0,27.41a167.25,167.25,0,0,1-15.89,63.6c-26.47,55.82-69.81,91.33-130.26,104.08-51.64,10.9-99.59.16-143-30-.47-.32-.9-.71-1.52-1.21.8-.43,1.43-.79,2.08-1.12,10.12-5.17,20.25-10.31,30.34-15.54a3.21,3.21,0,0,1,3.46,0,145.27,145.27,0,0,0,78.91,18.1c42.63-2.35,78.21-19.71,106.41-51.8a146,146,0,0,0,34-70.12,153.12,153.12,0,0,0,1.49-47.29c0-.13-.12-.24-.32-.64Z"/></svg>