<svg width="16" height="8" class="hidden lg:block" viewBox="0 0 16 8" fill="inherit" xmlns="http://www.w3.org/2000/svg"><path d="M10 0C9.63183 0 9.33335 0.298477 9.33335 0.666667C9.33335 1.03486 9.63183 1.33333 10 1.33333H13.0572L8.94953 5.44102C8.80974 5.5808 8.73289 5.65692 8.67344 5.70739L8.66669 5.71306L8.65993 5.70739C8.60048 5.65692 8.52363 5.5808 8.38384 5.44101L6.54397 3.60114C6.42502 3.48216 6.30915 3.36626 6.20301 3.27616C6.08645 3.1772 5.93852 3.07082 5.74538 3.00807C5.47758 2.92106 5.18912 2.92106 4.92133 3.00807C4.72819 3.07082 4.58026 3.1772 4.46369 3.27616C4.35755 3.36627 4.2417 3.48215 4.12274 3.60113L0.861949 6.86193C0.6016 7.12228 0.6016 7.54439 0.861949 7.80474C1.1223 8.06509 1.54441 8.06509 1.80476 7.80474L5.05051 4.55899C5.19029 4.4192 5.26715 4.34308 5.3266 4.29261L5.33335 4.28694L5.34011 4.29261C5.39956 4.34308 5.47641 4.4192 5.6162 4.55898L7.45608 6.39887C7.57504 6.51786 7.69089 6.63373 7.79703 6.72384C7.91359 6.8228 8.06152 6.92918 8.25466 6.99193C8.52246 7.07894 8.81092 7.07894 9.07871 6.99193C9.27185 6.92918 9.41978 6.8228 9.53635 6.72384C9.64249 6.63373 9.75834 6.51785 9.87731 6.39886L14 2.27614V5.33333C14 5.70152 14.2985 6 14.6667 6C15.0349 6 15.3334 5.70152 15.3334 5.33333V0.666667C15.3334 0.298477 15.0349 0 14.6667 0H10Z" fill="inherit"></path></svg>